<?xml version="1.0" standalone="no"?><!DOCTYPE svg PUBLIC "-//W3C//DTD SVG 1.1//EN" "http://www.w3.org/Graphics/SVG/1.1/DTD/svg11.dtd"><svg class="icon" height="512" viewBox="0 0 1024 1024" version="1.1" xmlns="http://www.w3.org/2000/svg"><path d="M221 799h600v-17.3c0-111.9-95-215.5-224.6-246.4l-4.2-0.9 3.1-1.8c55.2-30.4 89.3-88.3 89.3-151.1 0-94.9-76.9-172.2-171.4-172.2s-171.4 77.2-171.4 172.2 76.9 172.4 171.5 172.4c1.8 0 3.8 0.1 6.1 0.1h0.2l0.2-0.2c0.4 0.1 0.7 0 1.1 0 35.9 0 71 5.6 104.3 16.6 32.3 10.7 61.5 26 86.6 45.6 25.3 19.7 47.3 42.5 61.3 67.9 14.6 26.5 24 54.6 24 83.6v0.5l-5.5 0.1H252v0.4c0-76.4 43-137.5 130.4-181.4 6.7-3.4 8.8-11.9 5.4-18.7-2.3-4.6-7.9-7.7-13.3-7.7-2.2 0-3.8 0.5-5.6 1.4-91.5 45.8-147.9 130-147.9 219.6V799z m292.3-272.6c-79.6 0-144.3-65-144.3-144.9s64.7-144.9 144.3-144.9c79.6 0 144.3 65 144.3 144.9s-64.8 144.9-144.3 144.9z" fill="#B7B7B7" /></svg>